<svg width="220" height="350" viewBox="0 0 220 350" fill="none" xmlns="http://www.w3.org/2000/svg">
<g clip-path="url(#clip0_211_2094)">
<rect x="0.5" y="0.5" width="219" height="349" rx="27.5" fill="#E9DEBB" stroke="#D6C6AC"/>
<rect x="8.5" y="8.5" width="203" height="333" rx="23.5" stroke="#F7ECC8"/>
<mask id="path-3-inside-1_211_2094" fill="white">
<path d="M36.8506 171.378L43.3135 167L38.7656 173.71L50.627 175.313L39.1553 176.864L43.3135 183L36.9287 178.674L35.3135 190.627L33.6973 178.674L27.3135 183L31.4707 176.864L20 175.313L31.8604 173.71L27.3135 167L33.7754 171.378L35.3135 160L36.8506 171.378Z"/>
</mask>
<path d="M36.8506 171.378L35.8596 171.512L36.0756 173.111L37.4114 172.206L36.8506 171.378ZM43.3135 167L44.1413 167.561L42.7526 166.172L43.3135 167ZM38.7656 173.71L37.9378 173.149L37.0324 174.485L38.6317 174.701L38.7656 173.71ZM50.627 175.313L50.7609 176.304L50.7609 174.322L50.627 175.313ZM39.1553 176.864L39.0213 175.873L37.4222 176.089L38.3275 177.425L39.1553 176.864ZM43.3135 183L42.7525 183.828L44.1413 182.439L43.3135 183ZM36.9287 178.674L37.4896 177.846L36.1538 176.941L35.9377 178.54L36.9287 178.674ZM35.3135 190.627L34.3225 190.761L36.3045 190.761L35.3135 190.627ZM33.6973 178.674L34.6882 178.54L34.472 176.941L33.1363 177.846L33.6973 178.674ZM27.3135 183L26.4856 182.439L27.8745 183.828L27.3135 183ZM31.4707 176.864L32.2986 177.425L33.2036 176.089L31.6047 175.873L31.4707 176.864ZM20 175.313L19.866 174.322L19.866 176.304L20 175.313ZM31.8604 173.71L31.9943 174.701L33.5933 174.485L32.6882 173.149L31.8604 173.71ZM27.3135 167L27.8744 166.172L26.4856 167.561L27.3135 167ZM33.7754 171.378L33.2145 172.206L34.5502 173.111L34.7664 171.512L33.7754 171.378ZM35.3135 160L36.3045 159.866L34.3225 159.866L35.3135 160ZM36.8506 171.378L37.4114 172.206L43.8743 167.828L43.3135 167L42.7526 166.172L36.2898 170.55L36.8506 171.378ZM43.3135 167L42.4857 166.439L37.9378 173.149L38.7656 173.71L39.5934 174.271L44.1413 167.561L43.3135 167ZM38.7656 173.71L38.6317 174.701L50.493 176.304L50.627 175.313L50.7609 174.322L38.8996 172.719L38.7656 173.71ZM50.627 175.313L50.493 174.322L39.0213 175.873L39.1553 176.864L39.2892 177.855L50.7609 176.304L50.627 175.313ZM39.1553 176.864L38.3275 177.425L42.4857 183.561L43.3135 183L44.1413 182.439L39.9831 176.303L39.1553 176.864ZM43.3135 183L43.8744 182.172L37.4896 177.846L36.9287 178.674L36.3678 179.502L42.7525 183.828L43.3135 183ZM36.9287 178.674L35.9377 178.54L34.3225 190.493L35.3135 190.627L36.3045 190.761L37.9197 178.808L36.9287 178.674ZM35.3135 190.627L36.3045 190.493L34.6882 178.54L33.6973 178.674L32.7063 178.808L34.3225 190.761L35.3135 190.627ZM33.6973 178.674L33.1363 177.846L26.7525 182.172L27.3135 183L27.8745 183.828L34.2583 179.502L33.6973 178.674ZM27.3135 183L28.1413 183.561L32.2986 177.425L31.4707 176.864L30.6428 176.303L26.4856 182.439L27.3135 183ZM31.4707 176.864L31.6047 175.873L20.134 174.322L20 175.313L19.866 176.304L31.3367 177.855L31.4707 176.864ZM20 175.313L20.134 176.304L31.9943 174.701L31.8604 173.71L31.7264 172.719L19.866 174.322L20 175.313ZM31.8604 173.71L32.6882 173.149L28.1413 166.439L27.3135 167L26.4856 167.561L31.0325 174.271L31.8604 173.71ZM27.3135 167L26.7526 167.828L33.2145 172.206L33.7754 171.378L34.3363 170.55L27.8744 166.172L27.3135 167ZM33.7754 171.378L34.7664 171.512L36.3045 160.134L35.3135 160L34.3225 159.866L32.7844 171.244L33.7754 171.378ZM35.3135 160L34.3225 160.134L35.8596 171.512L36.8506 171.378L37.8416 171.244L36.3045 159.866L35.3135 160Z" fill="#F7ECC8" mask="url(#path-3-inside-1_211_2094)"/>
<mask id="path-5-inside-2_211_2094" fill="white">
<path d="M110.654 52.5449L115.508 49.2568L112.093 54.2959L121 55.5L112.385 56.6641L115.508 61.2725L110.713 58.0225L109.5 67L108.286 58.0225L103.492 61.2725L106.614 56.6641L98 55.5L106.906 54.2959L103.492 49.2568L108.345 52.5449L109.5 44L110.654 52.5449Z"/>
</mask>
<path d="M110.654 52.5449L109.663 52.6788L109.879 54.2778L111.215 53.3728L110.654 52.5449ZM115.508 49.2568L116.336 49.8179L114.947 48.4289L115.508 49.2568ZM112.093 54.2959L111.265 53.7349L110.36 55.0707L111.959 55.2869L112.093 54.2959ZM121 55.5L121.134 56.491L121.134 54.509L121 55.5ZM112.385 56.6641L112.251 55.6731L110.652 55.8892L111.557 57.2251L112.385 56.6641ZM115.508 61.2725L114.947 62.1002L116.336 60.7115L115.508 61.2725ZM110.713 58.0225L111.274 57.1947L109.938 56.2892L109.722 57.8886L110.713 58.0225ZM109.5 67L108.509 67.134L110.491 67.1339L109.5 67ZM108.286 58.0225L109.277 57.8885L109.061 56.2891L107.725 57.1947L108.286 58.0225ZM103.492 61.2725L102.664 60.7116L104.053 62.1002L103.492 61.2725ZM106.614 56.6641L107.442 57.2249L108.347 55.8891L106.748 55.6731L106.614 56.6641ZM98 55.5L97.866 54.509L97.8661 56.491L98 55.5ZM106.906 54.2959L107.04 55.2869L108.639 55.0707L107.734 53.735L106.906 54.2959ZM103.492 49.2568L104.053 48.429L102.664 49.8177L103.492 49.2568ZM108.345 52.5449L107.784 53.3728L109.12 54.2779L109.336 52.6789L108.345 52.5449ZM109.5 44L110.491 43.8661L108.509 43.866L109.5 44ZM110.654 52.5449L111.215 53.3728L116.069 50.0847L115.508 49.2568L114.947 48.4289L110.093 51.717L110.654 52.5449ZM115.508 49.2568L114.68 48.6958L111.265 53.7349L112.093 54.2959L112.921 54.8569L116.336 49.8179L115.508 49.2568ZM112.093 54.2959L111.959 55.2869L120.866 56.491L121 55.5L121.134 54.509L112.227 53.3049L112.093 54.2959ZM121 55.5L120.866 54.509L112.251 55.6731L112.385 56.6641L112.519 57.6551L121.134 56.491L121 55.5ZM112.385 56.6641L111.557 57.2251L114.68 61.8335L115.508 61.2725L116.336 60.7115L113.213 56.1031L112.385 56.6641ZM115.508 61.2725L116.069 60.4447L111.274 57.1947L110.713 58.0225L110.152 58.8502L114.947 62.1002L115.508 61.2725ZM110.713 58.0225L109.722 57.8886L108.509 66.8661L109.5 67L110.491 67.1339L111.704 58.1563L110.713 58.0225ZM109.5 67L110.491 66.866L109.277 57.8885L108.286 58.0225L107.295 58.1565L108.509 67.134L109.5 67ZM108.286 58.0225L107.725 57.1947L102.931 60.4447L103.492 61.2725L104.053 62.1002L108.847 58.8502L108.286 58.0225ZM103.492 61.2725L104.32 61.8333L107.442 57.2249L106.614 56.6641L105.786 56.1032L102.664 60.7116L103.492 61.2725ZM106.614 56.6641L106.748 55.6731L98.1339 54.509L98 55.5L97.8661 56.491L106.48 57.6551L106.614 56.6641ZM98 55.5L98.134 56.491L107.04 55.2869L106.906 54.2959L106.772 53.3049L97.866 54.509L98 55.5ZM106.906 54.2959L107.734 53.735L104.32 48.6959L103.492 49.2568L102.664 49.8177L106.078 54.8568L106.906 54.2959ZM103.492 49.2568L102.931 50.0847L107.784 53.3728L108.345 52.5449L108.906 51.7171L104.053 48.429L103.492 49.2568ZM108.345 52.5449L109.336 52.6789L110.491 44.134L109.5 44L108.509 43.866L107.354 52.4109L108.345 52.5449ZM109.5 44L108.509 44.1339L109.663 52.6788L110.654 52.5449L111.645 52.4111L110.491 43.8661L109.5 44Z" fill="#F7ECC8" mask="url(#path-5-inside-2_211_2094)"/>
<mask id="path-7-inside-3_211_2094" fill="white">
<path d="M110.654 291.545L115.508 288.257L112.093 293.296L121 294.5L112.385 295.664L115.508 300.272L110.713 297.022L109.5 306L108.286 297.022L103.492 300.272L106.614 295.664L98 294.5L106.906 293.296L103.492 288.257L108.345 291.545L109.5 283L110.654 291.545Z"/>
</mask>
<path d="M110.654 291.545L109.663 291.679L109.879 293.278L111.215 292.373L110.654 291.545ZM115.508 288.257L116.336 288.818L114.947 287.429L115.508 288.257ZM112.093 293.296L111.265 292.735L110.36 294.071L111.959 294.287L112.093 293.296ZM121 294.5L121.134 295.491L121.134 293.509L121 294.5ZM112.385 295.664L112.251 294.673L110.652 294.889L111.557 296.225L112.385 295.664ZM115.508 300.272L114.947 301.1L116.336 299.711L115.508 300.272ZM110.713 297.022L111.274 296.195L109.938 295.289L109.722 296.889L110.713 297.022ZM109.5 306L108.509 306.134L110.491 306.134L109.5 306ZM108.286 297.022L109.277 296.888L109.061 295.289L107.725 296.195L108.286 297.022ZM103.492 300.272L102.664 299.712L104.053 301.1L103.492 300.272ZM106.614 295.664L107.442 296.225L108.347 294.889L106.748 294.673L106.614 295.664ZM98 294.5L97.866 293.509L97.8661 295.491L98 294.5ZM106.906 293.296L107.04 294.287L108.639 294.071L107.734 292.735L106.906 293.296ZM103.492 288.257L104.053 287.429L102.664 288.818L103.492 288.257ZM108.345 291.545L107.784 292.373L109.12 293.278L109.336 291.679L108.345 291.545ZM109.5 283L110.491 282.866L108.509 282.866L109.5 283ZM110.654 291.545L111.215 292.373L116.069 289.085L115.508 288.257L114.947 287.429L110.093 290.717L110.654 291.545ZM115.508 288.257L114.68 287.696L111.265 292.735L112.093 293.296L112.921 293.857L116.336 288.818L115.508 288.257ZM112.093 293.296L111.959 294.287L120.866 295.491L121 294.5L121.134 293.509L112.227 292.305L112.093 293.296ZM121 294.5L120.866 293.509L112.251 294.673L112.385 295.664L112.519 296.655L121.134 295.491L121 294.5ZM112.385 295.664L111.557 296.225L114.68 300.833L115.508 300.272L116.336 299.711L113.213 295.103L112.385 295.664ZM115.508 300.272L116.069 299.445L111.274 296.195L110.713 297.022L110.152 297.85L114.947 301.1L115.508 300.272ZM110.713 297.022L109.722 296.889L108.509 305.866L109.5 306L110.491 306.134L111.704 297.156L110.713 297.022ZM109.5 306L110.491 305.866L109.277 296.888L108.286 297.022L107.295 297.156L108.509 306.134L109.5 306ZM108.286 297.022L107.725 296.195L102.931 299.445L103.492 300.272L104.053 301.1L108.847 297.85L108.286 297.022ZM103.492 300.272L104.32 300.833L107.442 296.225L106.614 295.664L105.786 295.103L102.664 299.712L103.492 300.272ZM106.614 295.664L106.748 294.673L98.1339 293.509L98 294.5L97.8661 295.491L106.48 296.655L106.614 295.664ZM98 294.5L98.134 295.491L107.04 294.287L106.906 293.296L106.772 292.305L97.866 293.509L98 294.5ZM106.906 293.296L107.734 292.735L104.32 287.696L103.492 288.257L102.664 288.818L106.078 293.857L106.906 293.296ZM103.492 288.257L102.931 289.085L107.784 292.373L108.345 291.545L108.906 290.717L104.053 287.429L103.492 288.257ZM108.345 291.545L109.336 291.679L110.491 283.134L109.5 283L108.509 282.866L107.354 291.411L108.345 291.545ZM109.5 283L108.509 283.134L109.663 291.679L110.654 291.545L111.645 291.411L110.491 282.866L109.5 283Z" fill="#F7ECC8" mask="url(#path-7-inside-3_211_2094)"/>
<mask id="path-9-inside-4_211_2094" fill="white">
<path d="M185.851 171.378L192.313 167L187.766 173.71L199.627 175.313L188.155 176.864L192.313 183L185.929 178.674L184.313 190.627L182.697 178.674L176.313 183L180.471 176.864L169 175.313L180.86 173.71L176.313 167L182.775 171.378L184.313 160L185.851 171.378Z"/>
</mask>
<path d="M185.851 171.378L184.86 171.512L185.076 173.111L186.411 172.206L185.851 171.378ZM192.313 167L193.141 167.561L191.753 166.172L192.313 167ZM187.766 173.71L186.938 173.149L186.032 174.485L187.632 174.701L187.766 173.71ZM199.627 175.313L199.761 176.304L199.761 174.322L199.627 175.313ZM188.155 176.864L188.021 175.873L186.422 176.089L187.327 177.425L188.155 176.864ZM192.313 183L191.753 183.828L193.141 182.439L192.313 183ZM185.929 178.674L186.49 177.846L185.154 176.941L184.938 178.54L185.929 178.674ZM184.313 190.627L183.322 190.761L185.304 190.761L184.313 190.627ZM182.697 178.674L183.688 178.54L183.472 176.941L182.136 177.846L182.697 178.674ZM176.313 183L175.486 182.439L176.874 183.828L176.313 183ZM180.471 176.864L181.299 177.425L182.204 176.089L180.605 175.873L180.471 176.864ZM169 175.313L168.866 174.322L168.866 176.304L169 175.313ZM180.86 173.71L180.994 174.701L182.593 174.485L181.688 173.149L180.86 173.71ZM176.313 167L176.874 166.172L175.486 167.561L176.313 167ZM182.775 171.378L182.214 172.206L183.55 173.111L183.766 171.512L182.775 171.378ZM184.313 160L185.304 159.866L183.322 159.866L184.313 160ZM185.851 171.378L186.411 172.206L192.874 167.828L192.313 167L191.753 166.172L185.29 170.55L185.851 171.378ZM192.313 167L191.486 166.439L186.938 173.149L187.766 173.71L188.593 174.271L193.141 167.561L192.313 167ZM187.766 173.71L187.632 174.701L199.493 176.304L199.627 175.313L199.761 174.322L187.9 172.719L187.766 173.71ZM199.627 175.313L199.493 174.322L188.021 175.873L188.155 176.864L188.289 177.855L199.761 176.304L199.627 175.313ZM188.155 176.864L187.327 177.425L191.486 183.561L192.313 183L193.141 182.439L188.983 176.303L188.155 176.864ZM192.313 183L192.874 182.172L186.49 177.846L185.929 178.674L185.368 179.502L191.753 183.828L192.313 183ZM185.929 178.674L184.938 178.54L183.322 190.493L184.313 190.627L185.304 190.761L186.92 178.808L185.929 178.674ZM184.313 190.627L185.304 190.493L183.688 178.54L182.697 178.674L181.706 178.808L183.322 190.761L184.313 190.627ZM182.697 178.674L182.136 177.846L175.752 182.172L176.313 183L176.874 183.828L183.258 179.502L182.697 178.674ZM176.313 183L177.141 183.561L181.299 177.425L180.471 176.864L179.643 176.303L175.486 182.439L176.313 183ZM180.471 176.864L180.605 175.873L169.134 174.322L169 175.313L168.866 176.304L180.337 177.855L180.471 176.864ZM169 175.313L169.134 176.304L180.994 174.701L180.86 173.71L180.726 172.719L168.866 174.322L169 175.313ZM180.86 173.71L181.688 173.149L177.141 166.439L176.313 167L175.486 167.561L180.033 174.271L180.86 173.71ZM176.313 167L175.753 167.828L182.214 172.206L182.775 171.378L183.336 170.55L176.874 166.172L176.313 167ZM182.775 171.378L183.766 171.512L185.304 160.134L184.313 160L183.322 159.866L181.784 171.244L182.775 171.378ZM184.313 160L183.322 160.134L184.86 171.512L185.851 171.378L186.842 171.244L185.304 159.866L184.313 160Z" fill="#F7ECC8" mask="url(#path-9-inside-4_211_2094)"/>
<path d="M115.713 216.795C115.713 222.573 120.567 227.256 126.556 227.256H102.159C108.148 227.256 113.002 222.573 113.002 216.795C113.002 211.017 108.148 206.333 102.159 206.333H126.556C120.567 206.333 115.713 211.017 115.713 216.795Z" stroke="#F7ECC8"/>
<path d="M97 72H84H71M123 72H136H149M58 97.625V123.25V148.875M58 163.5V203.328V206.531V209.734M58 251.375V238.562M162 97.625V123.25V200.125V225.75V251.375M71 277H84H97M123 277H136H149" stroke="#F7ECC8" stroke-linecap="round"/>
<path d="M75.5 78H64V102.125V126.25V150.375V174.5V198.625M98.5 78H110H121.5M144.5 78H156V102.125V126.25M144.5 271H156V246.875V222.75V198.625M121.5 271H110H98.5M75.5 271H64V246.875V234.812" stroke="#F7ECC8" stroke-linecap="round"/>
<path d="M132 60C132 47.2975 121.926 37 109.5 37C97.0736 37 87 47.2975 87 60" stroke="#F7ECC8"/>
<path d="M55 101C42.2974 101 32 111.074 32 123.5C32 135.926 42.2975 146 55 146" stroke="#F7ECC8"/>
<path d="M166 145C178.703 145 189 134.926 189 122.5C189 110.074 178.703 100 166 100" stroke="#F7ECC8"/>
<path d="M166 251C178.703 251 189 240.926 189 228.5C189 216.074 178.703 206 166 206" stroke="#F7ECC8"/>
<path d="M54.9999 206C45.3718 206 37.1255 211.787 33.6977 220M54.9999 251C44.054 251 34.894 243.52 32.5698 233.5" stroke="#F7ECC8"/>
<path d="M87 290C87 302.703 97.0736 313 109.5 313C121.926 313 132 302.703 132 290" stroke="#F7ECC8"/>
<circle cx="58" cy="157" r="3" fill="#F7ECC8"/>
<circle cx="79" cy="157" r="3" fill="#F7ECC8"/>
<circle cx="79" cy="148" r="2" fill="#F7ECC8"/>
<circle cx="79" cy="140" r="1" fill="#F7ECC8"/>
<circle cx="148" cy="235" r="3" transform="rotate(-180 148 235)" fill="#F7ECC8"/>
<circle cx="148" cy="244" r="2" transform="rotate(-180 148 244)" fill="#F7ECC8"/>
<circle cx="148" cy="252" r="1" transform="rotate(-180 148 252)" fill="#F7ECC8"/>
<circle cx="57" cy="71" r="3" fill="#F7ECC8"/>
<circle cx="36" cy="60" r="3" fill="#F7ECC8"/>
<circle cx="110" cy="86" r="3" fill="#F7ECC8"/>
<circle cx="110" cy="263" r="3" fill="#F7ECC8"/>
<circle cx="120" cy="86" r="2" fill="#F7ECC8"/>
<circle cx="120" cy="263" r="2" fill="#F7ECC8"/>
<circle cx="100" cy="86" r="2" fill="#F7ECC8"/>
<circle cx="100" cy="263" r="2" fill="#F7ECC8"/>
<circle cx="43" cy="120" r="2" fill="#F7ECC8"/>
<circle cx="43" cy="232" r="2" fill="#F7ECC8"/>
<circle cx="179" cy="120" r="2" fill="#F7ECC8"/>
<circle cx="179" cy="232" r="2" fill="#F7ECC8"/>
<circle cx="57" cy="278" r="3" fill="#F7ECC8"/>
<circle cx="163" cy="71" r="3" fill="#F7ECC8"/>
<circle cx="163" cy="278" r="3" fill="#F7ECC8"/>
<path d="M42.5 125.5C41.3 137.1 50.3334 141.667 55 142.5V137C51.5001 137 44.1001 134.7 42.5 125.5Z" stroke="#F7ECC8"/>
<path d="M178.5 126C179.7 137.6 170.667 142.167 166 143V137.5C169.5 137.5 176.9 135.2 178.5 126Z" stroke="#F7ECC8"/>
<path d="M178.5 226C179.7 214.4 170.667 209.833 166 209L166 214.5C169.5 214.5 176.9 216.8 178.5 226Z" stroke="#F7ECC8"/>
<path d="M54.6087 209L54.6087 214.5C52.6057 214.5 49.3254 215.253 46.5859 217.622L43.2815 217.622C45.7675 212.071 51.2914 209.592 54.6087 209Z" stroke="#F7ECC8"/>
<path d="M71 93L71 192" stroke="#F7ECC8"/>
<path d="M148 93L148 118" stroke="#F7ECC8"/>
<path d="M79 85.5H87.125H95.25M144 85.5H135.875H127.75" stroke="#F7ECC8"/>
<path d="M79 262.5H87.125H95.25M144 262.5H135.875H127.75" stroke="#F7ECC8"/>
</g>
<g clip-path="url(#clip1_211_2094)">
<rect x="-0.5" y="0.5" width="219" height="349" rx="27.5" transform="matrix(-1 0 0 1 219 0)" fill="#E9DEBB" stroke="#D6C6AC"/>
<rect x="-0.5" y="0.5" width="203" height="333" rx="23.5" transform="matrix(-1 0 0 1 211 8)" stroke="#D6C6AC"/>
<path d="M109.732 115C121.902 115 131.626 118.146 138.904 124.438C146.301 130.73 150 139.326 150 150.225C150 161.573 146.182 170.112 138.546 175.843C130.91 181.573 120.768 184.438 108.121 184.438L107.405 197.753H89.6868L88.7919 171.292H94.698C106.271 171.292 115.101 169.831 121.186 166.91C127.39 163.989 130.492 158.427 130.492 150.225C130.492 144.27 128.643 139.607 124.944 136.236C121.365 132.865 116.353 131.18 109.911 131.18C103.468 131.18 98.3967 132.809 94.698 136.067C90.9993 139.326 89.1499 143.876 89.1499 149.719H70C70 142.978 71.6107 136.966 74.8322 131.685C78.0537 126.404 82.6473 122.303 88.613 119.382C94.698 116.461 101.738 115 109.732 115ZM98.2774 235C94.5787 235 91.4765 233.82 88.9709 231.461C86.4653 229.101 85.2125 226.18 85.2125 222.697C85.2125 219.213 86.4653 216.292 88.9709 213.933C91.4765 211.573 94.5787 210.393 98.2774 210.393C101.857 210.393 104.899 211.573 107.405 213.933C109.911 216.292 111.163 219.213 111.163 222.697C111.163 226.18 109.911 229.101 107.405 231.461C104.899 233.82 101.857 235 98.2774 235Z" fill="#F7ECC8"/>
</g>
<defs>
<clipPath id="clip0_211_2094">
<rect width="220" height="350" fill="white"/>
</clipPath>
<clipPath id="clip1_211_2094">
<rect width="220" height="350" fill="white" transform="matrix(-1 0 0 1 220 0)"/>
</clipPath>
</defs>
</svg>
